<?xml version="1.0" encoding="utf-8"?>
<!-- Generator: Adobe Illustrator 16.0.0, SVG Export Plug-In . SVG Version: 6.00 Build 0)  -->
<!DOCTYPE svg PUBLIC "-//W3C//DTD SVG 1.1//EN" "http://www.w3.org/Graphics/SVG/1.1/DTD/svg11.dtd">
<svg version="1.1" id="icons" xmlns="http://www.w3.org/2000/svg" xmlns:xlink="http://www.w3.org/1999/xlink" x="0px" y="0px"
	 width="64px" height="64px" viewBox="0 0 64 64" enable-background="new 0 0 64 64" xml:space="preserve">
<g>
	<g>
		<path fill="#E6E9ED" d="M42.99,6.48v2.5c0,0.83-0.67,1.5-1.5,1.5s-1.5-0.67-1.5-1.5v-2.5v-2.5c0-0.83,0.67-1.5,1.5-1.5
			s1.5,0.67,1.5,1.5V6.48z"/>
	</g>
	<g>
		<path fill="#E6E9ED" d="M9.99,6.48v2.5c0,0.83-0.67,1.5-1.5,1.5s-1.5-0.67-1.5-1.5v-2.5v-2.5c0-0.83,0.67-1.5,1.5-1.5
			s1.5,0.67,1.5,1.5V6.48z"/>
	</g>
	<g>
		<path fill="#E6E9ED" d="M36.01,38.48v-4h-4v4H36.01z M48.99,33.48c-5.971,0-11.07,3.74-13.09,9H32.01v4h3
			c-0.029,0.33-0.04,0.68-0.04,1.02c0,1.02,0.11,2.02,0.32,2.98H0.99v-36h48l0.02,19C49,33.48,49,33.48,48.99,33.48z M44.99,30.48
			v-4h-4v4H44.99z M44.99,22.48v-4h-4v4H44.99z M35.99,30.48v-4h-4v4H35.99z M35.99,22.48v-4h-4v4H35.99z M26.99,46.48v-4h-4v4
			H26.99z M26.99,38.48v-4h-4v4H26.99z M26.99,30.48v-4h-4v4H26.99z M26.99,22.48v-4h-4v4H26.99z M17.99,46.48v-4h-4v4H17.99z
			 M17.99,38.48v-4h-4v4H17.99z M17.99,30.48v-4h-4v4H17.99z M17.99,22.48v-4h-4v4H17.99z M8.99,46.48v-4h-4v4H8.99z M8.99,38.48v-4
			h-4v4H8.99z M8.99,30.48v-4h-4v4H8.99z M8.99,22.48v-4h-4v4H8.99z"/>
	</g>
	<g>
		<path fill="#CCD1D9" d="M36.31,53.49L0.99,53.5v-3.02h34.3c0.04,0.199,0.09,0.389,0.14,0.58C35.65,51.91,35.95,52.721,36.31,53.49
			z"/>
	</g>
	<g>
		<path fill="#CCD1D9" d="M38.23,56.49L0.99,56.51V53.5l35.319-0.01C36.82,54.57,37.47,55.58,38.23,56.49z"/>
	</g>
	<g>
		<path fill="#ED5565" d="M48.99,8.48v6h-48v-6c0-1.111,0.899-2,2-2h4v2.5c0,0.83,0.67,1.5,1.5,1.5s1.5-0.67,1.5-1.5v-2.5h8v2.5
			c0,0.83,0.67,1.5,1.5,1.5s1.5-0.67,1.5-1.5v-2.5h8v2.5c0,0.83,0.67,1.5,1.5,1.5s1.5-0.67,1.5-1.5v-2.5h8v2.5
			c0,0.83,0.67,1.5,1.5,1.5s1.5-0.67,1.5-1.5v-2.5h4C48.1,6.48,48.99,7.369,48.99,8.48z"/>
	</g>
	<g>
		<path fill="#E6E9ED" d="M31.99,6.48v2.5c0,0.83-0.67,1.5-1.5,1.5s-1.5-0.67-1.5-1.5v-2.5v-2.5c0-0.83,0.67-1.5,1.5-1.5
			s1.5,0.67,1.5,1.5V6.48z"/>
	</g>
	<g>
		<path fill="#E6E9ED" d="M20.99,6.48v2.5c0,0.83-0.67,1.5-1.5,1.5s-1.5-0.67-1.5-1.5v-2.5v-2.5c0-0.83,0.67-1.5,1.5-1.5
			s1.5,0.67,1.5,1.5V6.48z"/>
	</g>
	<g>
		<g>
			<rect x="4.99" y="26.48" fill="#FFFFFF" width="4" height="4"/>
		</g>
		<g>
			<rect x="13.99" y="26.48" fill="#FFFFFF" width="4" height="4"/>
		</g>
		<g>
			<rect x="13.99" y="42.48" fill="#FFFFFF" width="4" height="4"/>
		</g>
		<g>
			<rect x="4.99" y="42.48" fill="#FFFFFF" width="4" height="4"/>
		</g>
		<g>
			<rect x="4.99" y="18.48" fill="#FFFFFF" width="4" height="4"/>
		</g>
		<g>
			<rect x="13.99" y="18.48" fill="#FFFFFF" width="4" height="4"/>
		</g>
		<g>
			<rect x="13.99" y="34.48" fill="#FFFFFF" width="4" height="4"/>
		</g>
		<g>
			<rect x="4.99" y="34.48" fill="#FFFFFF" width="4" height="4"/>
		</g>
		<g>
			<rect x="22.99" y="26.48" fill="#FFFFFF" width="4" height="4"/>
		</g>
		<g>
			<rect x="22.99" y="18.48" fill="#FFFFFF" width="4" height="4"/>
		</g>
		<g>
			<rect x="40.99" y="26.48" fill="#FFFFFF" width="4" height="4"/>
		</g>
		<g>
			<rect x="40.99" y="18.48" fill="#FFFFFF" width="4" height="4"/>
		</g>
		<g>
			<rect x="31.99" y="26.48" fill="#FFFFFF" width="4" height="4"/>
		</g>
		<g>
			<rect x="31.99" y="18.48" fill="#FFFFFF" width="4" height="4"/>
		</g>
		<g>
			<rect x="22.99" y="42.48" fill="#FFFFFF" width="4" height="4"/>
		</g>
		<g>
			<rect x="22.99" y="34.48" fill="#FFFFFF" width="4" height="4"/>
		</g>
		<g>
			<rect x="32.01" y="34.48" fill="#FFFFFF" width="4" height="4"/>
		</g>
		<g>
			<path fill="#FFFFFF" d="M32.01,42.48H35.9c-0.49,1.25-0.79,2.6-0.891,4h-3V42.48z"/>
		</g>
	</g>
	<g>
		<path fill="#EAC6BB" d="M53.99,40.99c1.38,0,2.5,1.119,2.5,2.5c0,1.379-1.12,2.49-2.5,2.49s-2.5-1.111-2.5-2.49
			C51.49,42.109,52.61,40.99,53.99,40.99z"/>
	</g>
	<g>
		<polygon fill="#EAC6BB" points="48.99,45.51 52.99,49.51 50.99,51.5 48.99,49.5 46.99,51.5 44.99,49.5 		"/>
	</g>
	<g>
		<path fill="#F5F7FA" d="M51.49,43.49c0,1.379,1.12,2.49,2.5,2.49s2.5-1.111,2.5-2.49c0-1.381-1.12-2.5-2.5-2.5
			S51.49,42.109,51.49,43.49z M63.01,47.5c0,1.23-0.16,2.43-0.46,3.561L60.99,49.5l-2,2l-2-2l-2,2v0.01l-2-2l-4-4l-4,3.99l-2,2l-2-2
			l-2,2l-2-2l-1.561,1.561c-0.05-0.191-0.1-0.381-0.14-0.58c-0.21-0.961-0.32-1.961-0.32-2.98c0-0.34,0.011-0.689,0.04-1.02
			c0.101-1.4,0.4-2.75,0.891-4c2.02-5.26,7.119-9,13.09-9c0.01,0,0.01,0,0.02,0C56.74,33.49,63.01,39.77,63.01,47.5z"/>
	</g>
	<g>
		<path fill="#5D9CEC" d="M58.99,51.5l2-2l1.56,1.561C60.98,57.08,55.5,61.52,48.99,61.52c-4.32,0-8.181-1.959-10.76-5.029
			c-0.761-0.91-1.41-1.92-1.921-3c-0.359-0.77-0.659-1.58-0.88-2.43L36.99,49.5l2,2l2-2l2,2l2-2l2,2l2-2l2,2l2-1.99l2,2V51.5l2-2
			L58.99,51.5z"/>
	</g>
</g>
<g>
	<g>
		<g>
			<path d="M0.992,9.48c-0.553,0-1-0.447-1-1c0-1.654,1.346-3,3-3c0.553,0,1,0.447,1,1s-0.447,1-1,1c-0.552,0-1,0.448-1,1
				C1.992,9.033,1.545,9.48,0.992,9.48z"/>
		</g>
		<g>
			<path d="M48.992,9.48c-0.553,0-1-0.447-1-1c0-0.552-0.448-1-1-1c-0.553,0-1-0.447-1-1s0.447-1,1-1c1.654,0,3,1.346,3,3
				C49.992,9.033,49.545,9.48,48.992,9.48z"/>
		</g>
		<g>
			<path d="M48.992,15.48h-48c-0.553,0-1-0.447-1-1s0.447-1,1-1h48c0.553,0,1,0.447,1,1S49.545,15.48,48.992,15.48z"/>
		</g>
		<g>
			<path d="M49.01,34.484c-0.552,0-1-0.447-1-0.999L47.992,8.481c0-0.553,0.447-1.001,0.999-1.001c0.001,0,0.001,0,0.001,0
				c0.552,0,1,0.447,1,0.999l0.018,25.004C50.01,34.036,49.563,34.484,49.01,34.484C49.01,34.484,49.01,34.484,49.01,34.484z"/>
		</g>
		<g>
			<path d="M0.992,57.514c-0.553,0-1-0.447-1-1V8.48c0-0.553,0.447-1,1-1s1,0.447,1,1v48.033
				C1.992,57.066,1.545,57.514,0.992,57.514z"/>
		</g>
		<g>
			<path d="M35.293,51.48H0.992c-0.553,0-1-0.447-1-1s0.447-1,1-1h34.301c0.553,0,1,0.447,1,1S35.846,51.48,35.293,51.48z"/>
		</g>
		<g>
			<path d="M0.992,54.498c-0.552,0-1-0.447-1-1c0-0.552,0.447-1,1-1l35.318-0.002c0.552,0,1,0.447,1,1c0,0.552-0.447,1-1,1
				L0.992,54.498z"/>
		</g>
		<g>
			<path d="M0.992,57.514c-0.552,0-1-0.447-1-1c0-0.552,0.447-1,1-1l37.236-0.018l0,0c0.552,0,1,0.447,1,1c0,0.552-0.447,1-1,1
				L0.992,57.514L0.992,57.514z"/>
		</g>
		<g>
			<g>
				<path d="M8.492,11.48c-1.379,0-2.5-1.121-2.5-2.5v-5c0-1.379,1.121-2.5,2.5-2.5s2.5,1.121,2.5,2.5v5
					C10.992,10.359,9.871,11.48,8.492,11.48z M8.492,3.48c-0.275,0-0.5,0.225-0.5,0.5v5c0,0.275,0.225,0.5,0.5,0.5
					s0.5-0.225,0.5-0.5v-5C8.992,3.705,8.768,3.48,8.492,3.48z"/>
			</g>
			<g>
				<path d="M19.492,11.48c-1.379,0-2.5-1.121-2.5-2.5v-5c0-1.379,1.121-2.5,2.5-2.5s2.5,1.121,2.5,2.5v5
					C21.992,10.359,20.871,11.48,19.492,11.48z M19.492,3.48c-0.275,0-0.5,0.225-0.5,0.5v5c0,0.275,0.225,0.5,0.5,0.5
					s0.5-0.225,0.5-0.5v-5C19.992,3.705,19.768,3.48,19.492,3.48z"/>
			</g>
			<g>
				<path d="M30.492,11.48c-1.379,0-2.5-1.121-2.5-2.5v-5c0-1.379,1.121-2.5,2.5-2.5s2.5,1.121,2.5,2.5v5
					C32.992,10.359,31.871,11.48,30.492,11.48z M30.492,3.48c-0.275,0-0.5,0.225-0.5,0.5v5c0,0.275,0.225,0.5,0.5,0.5
					s0.5-0.225,0.5-0.5v-5C30.992,3.705,30.768,3.48,30.492,3.48z"/>
			</g>
			<g>
				<path d="M41.492,11.48c-1.379,0-2.5-1.121-2.5-2.5v-5c0-1.379,1.121-2.5,2.5-2.5s2.5,1.121,2.5,2.5v5
					C43.992,10.359,42.871,11.48,41.492,11.48z M41.492,3.48c-0.275,0-0.5,0.225-0.5,0.5v5c0,0.275,0.225,0.5,0.5,0.5
					s0.5-0.225,0.5-0.5v-5C41.992,3.705,41.768,3.48,41.492,3.48z"/>
			</g>
		</g>
		<g>
			<path d="M6.992,7.48h-4c-0.553,0-1-0.447-1-1s0.447-1,1-1h4c0.553,0,1,0.447,1,1S7.545,7.48,6.992,7.48z"/>
		</g>
		<g>
			<path d="M17.992,7.48h-8c-0.553,0-1-0.447-1-1s0.447-1,1-1h8c0.553,0,1,0.447,1,1S18.545,7.48,17.992,7.48z"/>
		</g>
		<g>
			<path d="M28.992,7.48h-8c-0.553,0-1-0.447-1-1s0.447-1,1-1h8c0.553,0,1,0.447,1,1S29.545,7.48,28.992,7.48z"/>
		</g>
		<g>
			<path d="M39.992,7.48h-8c-0.553,0-1-0.447-1-1s0.447-1,1-1h8c0.553,0,1,0.447,1,1S40.545,7.48,39.992,7.48z"/>
		</g>
		<g>
			<path d="M46.992,7.48h-4c-0.553,0-1-0.447-1-1s0.447-1,1-1h4c0.553,0,1,0.447,1,1S47.545,7.48,46.992,7.48z"/>
		</g>
		<g>
			<path d="M8.992,23.48h-4c-0.553,0-1-0.447-1-1v-4c0-0.553,0.447-1,1-1h4c0.553,0,1,0.447,1,1v4
				C9.992,23.033,9.545,23.48,8.992,23.48z M5.992,21.48h2v-2h-2V21.48z"/>
		</g>
		<g>
			<path d="M17.992,23.48h-4c-0.553,0-1-0.447-1-1v-4c0-0.553,0.447-1,1-1h4c0.553,0,1,0.447,1,1v4
				C18.992,23.033,18.545,23.48,17.992,23.48z M14.992,21.48h2v-2h-2V21.48z"/>
		</g>
		<g>
			<path d="M26.992,23.48h-4c-0.553,0-1-0.447-1-1v-4c0-0.553,0.447-1,1-1h4c0.553,0,1,0.447,1,1v4
				C27.992,23.033,27.545,23.48,26.992,23.48z M23.992,21.48h2v-2h-2V21.48z"/>
		</g>
		<g>
			<path d="M35.992,23.48h-4c-0.553,0-1-0.447-1-1v-4c0-0.553,0.447-1,1-1h4c0.553,0,1,0.447,1,1v4
				C36.992,23.033,36.545,23.48,35.992,23.48z M32.992,21.48h2v-2h-2V21.48z"/>
		</g>
		<g>
			<path d="M8.992,31.48h-4c-0.553,0-1-0.447-1-1v-4c0-0.553,0.447-1,1-1h4c0.553,0,1,0.447,1,1v4
				C9.992,31.033,9.545,31.48,8.992,31.48z M5.992,29.48h2v-2h-2V29.48z"/>
		</g>
		<g>
			<path d="M17.992,31.48h-4c-0.553,0-1-0.447-1-1v-4c0-0.553,0.447-1,1-1h4c0.553,0,1,0.447,1,1v4
				C18.992,31.033,18.545,31.48,17.992,31.48z M14.992,29.48h2v-2h-2V29.48z"/>
		</g>
		<g>
			<path d="M26.992,31.48h-4c-0.553,0-1-0.447-1-1v-4c0-0.553,0.447-1,1-1h4c0.553,0,1,0.447,1,1v4
				C27.992,31.033,27.545,31.48,26.992,31.48z M23.992,29.48h2v-2h-2V29.48z"/>
		</g>
		<g>
			<path d="M8.992,39.48h-4c-0.553,0-1-0.447-1-1v-4c0-0.553,0.447-1,1-1h4c0.553,0,1,0.447,1,1v4
				C9.992,39.033,9.545,39.48,8.992,39.48z M5.992,37.48h2v-2h-2V37.48z"/>
		</g>
		<g>
			<path d="M17.992,39.48h-4c-0.553,0-1-0.447-1-1v-4c0-0.553,0.447-1,1-1h4c0.553,0,1,0.447,1,1v4
				C18.992,39.033,18.545,39.48,17.992,39.48z M14.992,37.48h2v-2h-2V37.48z"/>
		</g>
		<g>
			<path d="M26.992,39.48h-4c-0.553,0-1-0.447-1-1v-4c0-0.553,0.447-1,1-1h4c0.553,0,1,0.447,1,1v4
				C27.992,39.033,27.545,39.48,26.992,39.48z M23.992,37.48h2v-2h-2V37.48z"/>
		</g>
		<g>
			<path d="M36.01,39.48h-4c-0.553,0-1-0.447-1-1v-4c0-0.553,0.447-1,1-1h4c0.553,0,1,0.447,1,1v4
				C37.01,39.033,36.563,39.48,36.01,39.48z M33.01,37.48h2v-2h-2V37.48z"/>
		</g>
		<g>
			<path d="M35.008,47.48H32.01c-0.553,0-1-0.447-1-1v-4c0-0.553,0.447-1,1-1H35.9c0.553,0,1,0.447,1,1s-0.447,1-1,1H33.01v2h1.998
				c0.553,0,1,0.447,1,1S35.561,47.48,35.008,47.48z"/>
		</g>
		<g>
			<path d="M8.992,47.48h-4c-0.553,0-1-0.447-1-1v-4c0-0.553,0.447-1,1-1h4c0.553,0,1,0.447,1,1v4
				C9.992,47.033,9.545,47.48,8.992,47.48z M5.992,45.48h2v-2h-2V45.48z"/>
		</g>
		<g>
			<path d="M17.992,47.48h-4c-0.553,0-1-0.447-1-1v-4c0-0.553,0.447-1,1-1h4c0.553,0,1,0.447,1,1v4
				C18.992,47.033,18.545,47.48,17.992,47.48z M14.992,45.48h2v-2h-2V45.48z"/>
		</g>
		<g>
			<path d="M26.992,47.48h-4c-0.553,0-1-0.447-1-1v-4c0-0.553,0.447-1,1-1h4c0.553,0,1,0.447,1,1v4
				C27.992,47.033,27.545,47.48,26.992,47.48z M23.992,45.48h2v-2h-2V45.48z"/>
		</g>
		<g>
			<path d="M35.992,31.48h-4c-0.553,0-1-0.447-1-1v-4c0-0.553,0.447-1,1-1h4c0.553,0,1,0.447,1,1v4
				C36.992,31.033,36.545,31.48,35.992,31.48z M32.992,29.48h2v-2h-2V29.48z"/>
		</g>
		<g>
			<path d="M44.992,31.48h-4c-0.553,0-1-0.447-1-1v-4c0-0.553,0.447-1,1-1h4c0.553,0,1,0.447,1,1v4
				C45.992,31.033,45.545,31.48,44.992,31.48z M41.992,29.48h2v-2h-2V29.48z"/>
		</g>
		<g>
			<path d="M44.992,23.48h-4c-0.553,0-1-0.447-1-1v-4c0-0.553,0.447-1,1-1h4c0.553,0,1,0.447,1,1v4
				C45.992,23.033,45.545,23.48,44.992,23.48z M41.992,21.48h2v-2h-2V21.48z"/>
		</g>
	</g>
	<g>
		<g>
			<path d="M48.99,62.52c-8.28,0-15.018-6.737-15.018-15.018S40.71,32.484,48.99,32.484s15.018,6.737,15.018,15.018
				S57.271,62.52,48.99,62.52z M48.99,34.484c-7.178,0-13.018,5.84-13.018,13.018S41.813,60.52,48.99,60.52
				s13.018-5.84,13.018-13.018S56.168,34.484,48.99,34.484z"/>
		</g>
		<g>
			<path d="M62.547,52.062c-0.256,0-0.512-0.098-0.707-0.293l-1.555-1.556c-0.391-0.391-0.391-1.024,0-1.414
				c0.391-0.391,1.023-0.391,1.414,0l1.555,1.556c0.391,0.391,0.391,1.024,0,1.414C63.059,51.964,62.803,52.062,62.547,52.062z"/>
		</g>
		<g>
			<path d="M58.992,52.506c-0.256,0-0.512-0.098-0.707-0.293c-0.391-0.391-0.391-1.023,0-1.414l2-2c0.391-0.391,1.023-0.391,1.414,0
				s0.391,1.023,0,1.414l-2,2C59.504,52.408,59.248,52.506,58.992,52.506z"/>
		</g>
		<g>
			<path d="M58.992,52.506c-0.256,0-0.512-0.098-0.707-0.293l-2-2c-0.391-0.391-0.391-1.023,0-1.414s1.023-0.391,1.414,0l2,2
				c0.391,0.391,0.391,1.023,0,1.414C59.504,52.408,59.248,52.506,58.992,52.506z"/>
		</g>
		<g>
			<path d="M54.992,52.506c-0.256,0-0.512-0.098-0.707-0.293c-0.391-0.391-0.391-1.023,0-1.414l2-2c0.391-0.391,1.023-0.391,1.414,0
				s0.391,1.023,0,1.414l-2,2C55.504,52.408,55.248,52.506,54.992,52.506z"/>
		</g>
		<g>
			<path d="M54.988,52.508c-0.256,0-0.512-0.098-0.707-0.293l-8.998-8.999c-0.391-0.391-0.391-1.023,0-1.414s1.023-0.391,1.414,0
				l8.998,8.999c0.391,0.391,0.391,1.023,0,1.414C55.5,52.41,55.244,52.508,54.988,52.508z"/>
		</g>
		<g>
			<path d="M50.992,52.506c-0.256,0-0.512-0.098-0.707-0.293c-0.391-0.391-0.391-1.023,0-1.414l2-2c0.391-0.391,1.023-0.391,1.414,0
				s0.391,1.023,0,1.414l-2,2C51.504,52.408,51.248,52.506,50.992,52.506z"/>
		</g>
		<g>
			<path d="M50.992,52.506c-0.256,0-0.512-0.098-0.707-0.293l-2-2c-0.391-0.391-0.391-1.023,0-1.414s1.023-0.391,1.414,0l2,2
				c0.391,0.391,0.391,1.023,0,1.414C51.504,52.408,51.248,52.506,50.992,52.506z"/>
		</g>
		<g>
			<path d="M46.992,52.506c-0.256,0-0.512-0.098-0.707-0.293c-0.391-0.391-0.391-1.023,0-1.414l2-2c0.391-0.391,1.023-0.391,1.414,0
				s0.391,1.023,0,1.414l-2,2C47.504,52.408,47.248,52.506,46.992,52.506z"/>
		</g>
		<g>
			<path d="M46.992,52.506c-0.256,0-0.512-0.098-0.707-0.293l-2-2c-0.391-0.391-0.391-1.023,0-1.414s1.023-0.391,1.414,0l2,2
				c0.391,0.391,0.391,1.023,0,1.414C47.504,52.408,47.248,52.506,46.992,52.506z"/>
		</g>
		<g>
			<path d="M42.992,52.506c-0.256,0-0.512-0.098-0.707-0.293c-0.391-0.391-0.391-1.023,0-1.414l2-2c0.391-0.391,1.023-0.391,1.414,0
				s0.391,1.023,0,1.414l-2,2C43.504,52.408,43.248,52.506,42.992,52.506z"/>
		</g>
		<g>
			<path d="M42.99,52.506c-0.256,0-0.512-0.098-0.707-0.293l-2-2c-0.391-0.391-0.391-1.023,0-1.414s1.023-0.391,1.414,0l2,2
				c0.391,0.391,0.391,1.023,0,1.414C43.502,52.408,43.246,52.506,42.99,52.506z"/>
		</g>
		<g>
			<path d="M38.99,52.506c-0.256,0-0.512-0.098-0.707-0.293c-0.391-0.391-0.391-1.023,0-1.414l2-2c0.391-0.391,1.023-0.391,1.414,0
				s0.391,1.023,0,1.414l-2,2C39.502,52.408,39.246,52.506,38.99,52.506z"/>
		</g>
		<g>
			<path d="M38.99,52.506c-0.256,0-0.512-0.098-0.707-0.293l-2-2c-0.391-0.391-0.391-1.023,0-1.414s1.023-0.391,1.414,0l2,2
				c0.391,0.391,0.391,1.023,0,1.414C39.502,52.408,39.246,52.506,38.99,52.506z"/>
		</g>
		<g>
			<path d="M35.432,52.065c-0.256,0-0.512-0.098-0.707-0.293c-0.391-0.39-0.391-1.023,0-1.414l1.559-1.56
				c0.391-0.391,1.023-0.391,1.414,0c0.391,0.39,0.391,1.023,0,1.414l-1.559,1.56C35.943,51.968,35.688,52.065,35.432,52.065z"/>
		</g>
		<g>
			<path d="M53.99,46.986c-1.93,0-3.5-1.569-3.5-3.499s1.57-3.5,3.5-3.5s3.5,1.57,3.5,3.5S55.92,46.986,53.99,46.986z M53.99,41.987
				c-0.827,0-1.5,0.673-1.5,1.5c0,0.826,0.673,1.499,1.5,1.499s1.5-0.673,1.5-1.499C55.49,42.66,54.817,41.987,53.99,41.987z"/>
		</g>
		<g>
			<path d="M41.992,47.507c-0.256,0-0.512-0.098-0.707-0.293c-0.391-0.391-0.391-1.023,0-1.414l3.998-3.998
				c0.391-0.391,1.023-0.391,1.414,0s0.391,1.023,0,1.414l-3.998,3.998C42.504,47.409,42.248,47.507,41.992,47.507z"/>
		</g>
		<g>
			<path d="M44.992,50.506c-0.256,0-0.512-0.098-0.707-0.293c-0.391-0.391-0.391-1.023,0-1.414l3.996-3.997
				c0.391-0.391,1.023-0.391,1.414,0s0.391,1.023,0,1.414l-3.996,3.997C45.504,50.408,45.248,50.506,44.992,50.506z"/>
		</g>
	</g>
</g>
</svg>
